<svg xmlns="http://www.w3.org/2000/svg" width="18" height="19.999" viewBox="0 0 18 19.999"><g transform="translate(-1818 -254)"><g transform="translate(2140 1347)" fill="none"><path d="M-322-1077l2-4v-5a7,7,0,0,1,7-7,7,7,0,0,1,7,7v5l2,4Z" stroke="none"/><path d="M -306.9126892089844 -1078.800415039062 L -307.8000183105469 -1080.574951171875 L -307.8000183105469 -1086.000366210938 C -307.8000183105469 -1088.867309570312 -310.1328125 -1091.199584960938 -313.0002136230469 -1091.199584960938 C -315.8676147460938 -1091.199584960938 -318.2003784179688 -1088.867309570312 -318.2003784179688 -1086.000366210938 L -318.2003784179688 -1080.574951171875 L -319.0877075195312 -1078.800415039062 L -306.9126892089844 -1078.800415039062 M -304.0002136230469 -1077.000366210938 L -322.0002136230469 -1077.000366210938 L -320.0003967285156 -1080.999877929688 L -320.0003967285156 -1086.000366210938 C -320.0003967285156 -1089.865844726562 -316.86572265625 -1092.999633789062 -313.0002136230469 -1092.999633789062 C -309.1338195800781 -1092.999633789062 -306 -1089.865844726562 -306 -1086.000366210938 L -306 -1080.999877929688 L -304.0002136230469 -1077.000366210938 Z" stroke="none" fill="#757d94"/></g><path d="M-322-1089h6a3,3,0,0,1-3,3A3,3,0,0,1-322-1089Z" transform="translate(2146 1360)" fill="#757d94"/></g></svg>