<svg xmlns="http://www.w3.org/2000/svg" width="54" height="56.053" viewBox="0 0 54 56.053"><g transform="translate(-319.5 -442.5)"><path d="M36,36.395a1,1,0,0,1-1-1V10.856a4.764,4.764,0,1,1,9.526,0V30.487a1,1,0,0,1-2,0V10.856a2.765,2.765,0,1,0-5.526,0V35.395A1,1,0,0,1,36,36.395Z" transform="translate(308.105 440.263)" fill="#fff"/><path d="M34.721,67.644a1,1,0,0,1-1-1V60.618L22.365,44.154A4.165,4.165,0,0,1,21.2,41.313a4.028,4.028,0,0,1,4.091-4.091,4.168,4.168,0,0,1,2.91,1.233l3.752,3.752a1,1,0,0,1-1.414,1.414l-3.752-3.752a2.179,2.179,0,0,0-1.52-.647A2.028,2.028,0,0,0,23.2,41.289a2.179,2.179,0,0,0,.647,1.52l.064.064L35.721,60v6.649A1,1,0,0,1,34.721,67.644Z" transform="translate(312.463 430.404)" fill="#fff"/><path d="M54.164,37.711a1,1,0,0,1-1-1V25.67a2.583,2.583,0,1,0-5.164,0,1,1,0,0,1-2,0,4.583,4.583,0,1,1,9.164,0v11.04A1,1,0,0,1,54.164,37.711Z" transform="translate(304.632 435.526)" fill="#fff"/><path d="M64.45,40.026a1,1,0,0,1-1-1V28.67A2.63,2.63,0,0,0,60.869,26a2.555,2.555,0,0,0-2.176,1.232,1,1,0,1,1-1.7-1.054A4.543,4.543,0,0,1,60.869,24a4.632,4.632,0,0,1,4.582,4.67V39.026A1,1,0,0,1,64.45,40.026Z" transform="translate(301.207 434.579)" fill="#fff"/><path d="M69.661,65.868a1,1,0,0,1-1-1V59.052l.211-.271a23.528,23.528,0,0,0,3.993-7.361,11.627,11.627,0,0,0,.586-2.977V34.671A2.63,2.63,0,0,0,70.869,32a2.555,2.555,0,0,0-2.176,1.232,1,1,0,1,1-1.7-1.054A4.543,4.543,0,0,1,70.869,30a4.632,4.632,0,0,1,4.582,4.671V48.447c0,.207-.055,5.063-4.789,11.287v5.134A1,1,0,0,1,69.661,65.868Z" transform="translate(298.05 432.684)" fill="#fff"/><path d="M6.132,11.922a1,1,0,0,1-.707-.293L.793,7a1,1,0,0,1,0-1.414L5.582.793A1,1,0,0,1,7,2.207L2.914,6.289l3.925,3.925a1,1,0,0,1-.707,1.707Z" transform="translate(319 442)" fill="#fff"/><path d="M22.657,11.922a1,1,0,0,1-.707-1.707l3.925-3.925L21.793,2.207A1,1,0,0,1,23.207.793L28,5.582A1,1,0,0,1,28,7l-4.632,4.632A1,1,0,0,1,22.657,11.922Z" transform="translate(312.368 442)" fill="#fff"/><path d="M17.129,1H0A1,1,0,0,1-1,0,1,1,0,0,1,0-1H17.129a1,1,0,0,1,1,1A1,1,0,0,1,17.129,1Z" transform="translate(321.899 448.211)" fill="#fff"/></g></svg>