<svg xmlns="http://www.w3.org/2000/svg" width="16.595" height="14.937" viewBox="0 0 16.595 14.937"><g transform="translate(-973.205 -4276.196)" fill="none"><path d="M981.5,4291.132a1.021,1.021,0,0,1-.6-.167c-3.333-2.282-5.513-4.3-6.661-6.165a6.384,6.384,0,0,1-1.005-4.17,4.941,4.941,0,0,1,1.415-3.1,4.585,4.585,0,0,1,3.26-1.335,4.346,4.346,0,0,1,3.12,1.452.479.479,0,1,0,.943,0,4.347,4.347,0,0,1,3.12-1.452,4.586,4.586,0,0,1,3.26,1.335,4.942,4.942,0,0,1,1.415,3.1,6.385,6.385,0,0,1-1.005,4.17c-1.148,1.866-3.328,3.882-6.663,6.166A1.02,1.02,0,0,1,981.5,4291.132Z" stroke="none"/><path d="M 981.502197265625 4288.94677734375 C 984.2655029296875 4287.00244140625 986.1339721679688 4285.25634765625 987.0599975585938 4283.751953125 C 987.8406982421875 4282.4833984375 987.8385009765625 4281.560546875 987.7752075195312 4280.794921875 C 987.716064453125 4280.0810546875 987.419921875 4279.4248046875 986.9418334960938 4278.94873046875 C 986.454345703125 4278.462890625 985.7978515625 4278.19580078125 985.0933227539062 4278.19580078125 C 984.52587890625 4278.19580078125 983.9321899414062 4278.49072265625 983.4235229492188 4279.02490234375 C 983.3135375976562 4279.140625 983.2088012695312 4279.26611328125 983.1121826171875 4279.39697265625 L 981.502197265625 4281.58154296875 L 979.8922119140625 4279.39697265625 C 979.7958374023438 4279.26611328125 979.6911010742188 4279.14111328125 979.5823974609375 4279.02685546875 C 979.0720825195312 4278.49072265625 978.4785766601562 4278.19580078125 977.9111328125 4278.19580078125 C 977.20654296875 4278.19580078125 976.5501708984375 4278.462890625 976.0630493164062 4278.9482421875 C 975.58447265625 4279.4248046875 975.288330078125 4280.08056640625 975.229248046875 4280.794921875 C 975.1658935546875 4281.560546875 975.1636352539062 4282.4833984375 975.9442749023438 4283.751953125 C 976.87060546875 4285.2568359375 978.7388916015625 4287.00244140625 981.502197265625 4288.94677734375 M 981.502197265625 4291.13232421875 C 981.261962890625 4291.13232421875 981.0657958984375 4291.07763671875 980.9024047851562 4290.96484375 C 977.5692138671875 4288.6826171875 975.3895263671875 4286.666015625 974.2410888671875 4284.80029296875 C 973.1923217773438 4283.09619140625 973.14453125 4281.73583984375 973.236083984375 4280.6298828125 C 973.3342895507812 4279.44287109375 973.8369140625 4278.3427734375 974.6515502929688 4277.53125 C 975.5159301757812 4276.67041015625 976.6736450195312 4276.19580078125 977.9111328125 4276.19580078125 C 979.0317993164062 4276.19580078125 980.1397094726562 4276.7119140625 981.0307006835938 4277.6474609375 C 981.1990966796875 4277.82470703125 981.3568115234375 4278.01318359375 981.502197265625 4278.21044921875 C 981.6475830078125 4278.01318359375 981.80517578125 4277.82470703125 981.9735717773438 4277.6474609375 C 982.8646850585938 4276.7119140625 983.9725341796875 4276.19580078125 985.0933227539062 4276.19580078125 C 986.330810546875 4276.19580078125 987.4884033203125 4276.67041015625 988.3529663085938 4277.53125 C 989.1674194335938 4278.3427734375 989.6701049804688 4279.44287109375 989.7683715820312 4280.6298828125 C 989.85986328125 4281.73583984375 989.8120727539062 4283.09619140625 988.7633056640625 4284.80029296875 C 987.6148071289062 4286.666015625 985.4351806640625 4288.6826171875 982.099853515625 4290.96630859375 C 981.9386596679688 4291.07763671875 981.742431640625 4291.13232421875 981.502197265625 4291.13232421875 Z" stroke="none" fill="#8897b0"/></g></svg>