<svg xmlns="http://www.w3.org/2000/svg" width="20" height="15" viewBox="0 0 20 15"><path d="M5,7.516a.7.7,0,0,0-1.387.151Zm.156,8.423-.693.076h0Zm1.848,1.626v.685h0Zm9.488,0v-.685h0Zm1.849-1.626.693.076h0Zm1.542-8.271A.7.7,0,0,0,18.5,7.516ZM2.448,6.906a.686.686,0,1,0,0,1.371Zm18.6,1.371a.686.686,0,1,0,0-1.371ZM4.614,7.285a.68.68,0,0,0,.312.92A.7.7,0,0,0,5.862,7.9ZM7.723,4.242a.68.68,0,0,0-.312-.92.7.7,0,0,0-.936.307ZM17.637,7.9a.7.7,0,0,0,.936.307.68.68,0,0,0,.312-.92Zm-.612-4.269a.7.7,0,0,0-.936-.307.68.68,0,0,0-.312.92ZM8.262,13.908a.7.7,0,0,0,1.4,0Zm1.4-2.661a.7.7,0,0,0-1.4,0Zm1.4,2.661a.7.7,0,0,0,1.4,0Zm1.4-2.661a.7.7,0,0,0-1.4,0Zm1.4,2.661a.7.7,0,0,0,1.4,0Zm1.4-2.661a.7.7,0,0,0-1.4,0ZM3.615,7.667l.849,8.347,1.387-.151L5,7.516Zm.849,8.347A2.542,2.542,0,0,0,7.005,18.25V16.879a1.155,1.155,0,0,1-1.155-1.016ZM7.006,18.25h9.488V16.879H7.006Zm9.488,0a2.542,2.542,0,0,0,2.543-2.236l-1.387-.152a1.156,1.156,0,0,1-1.156,1.016Zm2.543-2.236.848-8.347L18.5,7.516l-.848,8.347ZM2.448,8.277h18.6V6.906H2.448ZM5.862,7.9l1.86-3.656L6.475,3.629,4.614,7.285Zm13.023-.613-1.86-3.656-1.248.613L17.637,7.9ZM9.657,13.908V11.247h-1.4v2.661Zm2.791,0V11.247h-1.4v2.661Zm2.791,0V11.247h-1.4v2.661Z" transform="translate(-1.75 -3.25)" fill="#646a7a"/></svg>