<svg xmlns="http://www.w3.org/2000/svg" width="12" height="13.001" viewBox="0 0 12 13.001">
  <g id="그룹_7213" data-name="그룹 7213" transform="translate(-483 -249)">
    <g id="빼기_2" data-name="빼기 2" transform="translate(483 -30)" fill="none">
      <path d="M5,292H0v-8.357L6,279l6,4.643V292H7v-4H5v4Z" stroke="none"/>
      <path d="M 4.000404834747314 291.0004272460938 L 4.000404834747314 287 L 8.000205039978027 287 L 8.000205039978027 290.9993896484375 L 10.99970531463623 290.9988098144531 L 10.99970531463623 284.1336669921875 L 6.000255107879639 280.2644653320312 L 1.000005006790161 284.1336975097656 L 1.000005006790161 290.9998168945312 L 4.000404834747314 291.0004272460938 M 5.000404834747314 292.0006103515625 L 5.041503754910082e-06 291.9996032714844 L 5.041503754910082e-06 283.6430969238281 L 6.00030517578125 279 L 11.99970531463623 283.6430969238281 L 11.99970531463623 291.9985961914062 L 7.000205039978027 291.9996032714844 L 7.000205039978027 288 L 5.000404834747314 288 L 5.000404834747314 292.0006103515625 Z" stroke="none" fill="#707070"/>
    </g>
  </g>
</svg>
