<svg xmlns="http://www.w3.org/2000/svg" width="19.999" height="18" viewBox="0 0 19.999 18"><g transform="translate(-973.205 -4276.196)" fill="none"><path d="M983.2,4294.2a1.232,1.232,0,0,1-.723-.2c-4.017-2.75-6.644-5.181-8.028-7.429a7.693,7.693,0,0,1-1.211-5.026,5.954,5.954,0,0,1,1.706-3.734,5.525,5.525,0,0,1,3.928-1.609,5.236,5.236,0,0,1,3.759,1.75,7.066,7.066,0,0,1,.568.678,7.073,7.073,0,0,1,.568-.678,5.237,5.237,0,0,1,3.76-1.75,5.525,5.525,0,0,1,3.928,1.609,5.955,5.955,0,0,1,1.706,3.734,7.694,7.694,0,0,1-1.211,5.026c-1.384,2.249-4.011,4.679-8.03,7.431A1.232,1.232,0,0,1,983.2,4294.2Z" stroke="none"/><path d="M 983.204345703125 4292.06298828125 C 986.7099609375 4289.62158203125 989.0797729492188 4287.42041015625 990.2515258789062 4285.5166015625 C 991.2574462890625 4283.88232421875 991.2545166015625 4282.69140625 991.1728515625 4281.7041015625 C 991.0935668945312 4280.7470703125 990.6943359375 4279.865234375 990.0489501953125 4279.22216796875 C 989.38427734375 4278.560546875 988.4904174804688 4278.19580078125 987.531982421875 4278.19580078125 C 986.7344970703125 4278.19580078125 985.9136962890625 4278.5966796875 985.2214965820312 4279.32373046875 C 985.0776977539062 4279.474609375 984.940673828125 4279.638671875 984.8142700195312 4279.81005859375 L 983.2042236328125 4281.9951171875 L 981.5941772460938 4279.81005859375 C 981.468017578125 4279.638671875 981.3310546875 4279.47509765625 981.1873779296875 4279.32421875 C 980.49462890625 4278.5966796875 979.6739501953125 4278.19580078125 978.8765258789062 4278.19580078125 C 977.9180908203125 4278.19580078125 977.0242309570312 4278.560546875 976.35986328125 4279.22216796875 C 975.714111328125 4279.865234375 975.3148803710938 4280.74658203125 975.2356567382812 4281.7041015625 C 975.1539306640625 4282.69140625 975.1509399414062 4283.8818359375 976.1568603515625 4285.5166015625 C 977.3290405273438 4287.4208984375 979.6989135742188 4289.6220703125 983.204345703125 4292.06298828125 M 983.2042236328125 4294.19580078125 C 982.9147338867188 4294.19580078125 982.6782836914062 4294.1298828125 982.4813842773438 4293.994140625 C 978.4644775390625 4291.244140625 975.8377075195312 4288.8134765625 974.4536743164062 4286.56494140625 C 973.1897583007812 4284.51123046875 973.1321411132812 4282.8720703125 973.2424926757812 4281.5390625 C 973.36083984375 4280.10888671875 973.9666137695312 4278.783203125 974.9483032226562 4277.80517578125 C 975.9900512695312 4276.767578125 977.3851928710938 4276.19580078125 978.8765258789062 4276.19580078125 C 980.2271118164062 4276.19580078125 981.562255859375 4276.8173828125 982.635986328125 4277.9453125 C 982.8389892578125 4278.15869140625 983.0289916992188 4278.3857421875 983.2042236328125 4278.62353515625 C 983.3794555664062 4278.3857421875 983.5693359375 4278.15869140625 983.7722778320312 4277.9453125 C 984.84619140625 4276.8173828125 986.1813354492188 4276.19580078125 987.531982421875 4276.19580078125 C 989.0233154296875 4276.19580078125 990.4183959960938 4276.767578125 991.4602661132812 4277.80517578125 C 992.4417724609375 4278.783203125 993.047607421875 4280.10888671875 993.166015625 4281.5390625 C 993.2763061523438 4282.8720703125 993.2186889648438 4284.51123046875 991.954833984375 4286.56494140625 C 990.5707397460938 4288.8134765625 987.9439697265625 4291.244140625 983.9244995117188 4293.99609375 C 983.730224609375 4294.1298828125 983.4937744140625 4294.19580078125 983.2042236328125 4294.19580078125 Z" stroke="none" fill="#757d94"/></g></svg>