<svg xmlns="http://www.w3.org/2000/svg" width="19.293" height="20.307" viewBox="0 0 19.293 20.307"><g transform="translate(-59.093 63.9)"><path d="M16.472,10.6l-.353-.2a1.312,1.312,0,0,1,0-2.29l.353-.2A1.966,1.966,0,0,0,17.209,5.2l-.671-1.145a2.031,2.031,0,0,0-2.749-.726l-.353.2a1.344,1.344,0,0,1-1.342,0,1.306,1.306,0,0,1-.671-1.145v-.4A2,2,0,0,0,9.411,0H8.069A2,2,0,0,0,6.057,1.983v.4A1.306,1.306,0,0,1,5.386,3.53a1.345,1.345,0,0,1-1.342,0l-.353-.2a2.032,2.032,0,0,0-2.75.726L.27,5.2a1.966,1.966,0,0,0,.737,2.709l.354.2a1.312,1.312,0,0,1,0,2.29l-.353.2a1.966,1.966,0,0,0-.737,2.709l.671,1.145a2.032,2.032,0,0,0,2.749.726l.353-.2a1.344,1.344,0,0,1,1.342,0,1.306,1.306,0,0,1,.671,1.145v.4a2,2,0,0,0,2.013,1.983H9.411a2,2,0,0,0,2.013-1.983v-.4a1.306,1.306,0,0,1,.671-1.145,1.345,1.345,0,0,1,1.342,0l.353.2a2.032,2.032,0,0,0,2.749-.726l.671-1.145a1.966,1.966,0,0,0-.737-2.709" transform="translate(60 -63)" fill="none" stroke="#757d94" stroke-width="1.8"/><g transform="translate(65.24 -57.246)" fill="#fff" stroke="#757d94" stroke-width="1.8"><circle cx="3.5" cy="3.5" r="3.5" stroke="none"/><circle cx="3.5" cy="3.5" r="2.6" fill="none"/></g></g></svg>