<svg xmlns="http://www.w3.org/2000/svg" width="19.005" height="18.003" viewBox="0 0 19.005 18.003">
  <path id="star-svgrepo-com_3_" data-name="star-svgrepo-com (3)" d="M10.955,4.364c.223-.493.334-.739.489-.815a.486.486,0,0,1,.427,0c.155.076.266.322.489.815l1.773,3.925a1.045,1.045,0,0,0,.15.274.48.48,0,0,0,.161.116,1.076,1.076,0,0,0,.311.056l4.33.451c.544.057.815.085.936.207a.471.471,0,0,1,.132.4c-.025.169-.228.349-.634.711l-3.234,2.877a1.055,1.055,0,0,0-.218.225.47.47,0,0,0-.062.187,1.035,1.035,0,0,0,.042.309l.9,4.2c.113.528.17.792.09.943a.48.48,0,0,1-.346.248c-.171.028-.407-.106-.881-.376l-3.772-2.147a1.071,1.071,0,0,0-.284-.135.489.489,0,0,0-.2,0,1.071,1.071,0,0,0-.284.135L7.5,19.12c-.473.27-.71.4-.881.376a.48.48,0,0,1-.346-.248c-.08-.151-.023-.415.09-.943l.9-4.2a1.037,1.037,0,0,0,.042-.309.47.47,0,0,0-.062-.187,1.055,1.055,0,0,0-.218-.225L3.8,10.5c-.406-.361-.609-.542-.634-.711a.47.47,0,0,1,.132-.4c.121-.122.393-.15.936-.207l4.33-.451a1.075,1.075,0,0,0,.311-.056.48.48,0,0,0,.162-.116,1.046,1.046,0,0,0,.15-.274Z" transform="translate(-2.155 -2.491)" fill="none" stroke="#8897b0" stroke-linecap="round" stroke-linejoin="round" stroke-width="2"/>
</svg>
