<svg xmlns="http://www.w3.org/2000/svg" width="14.679" height="9.456" viewBox="0 0 14.679 9.456">
  <g id="패스_10704" data-name="패스 10704" transform="translate(-1.161 -0.544)" fill="#fff">
    <path d="M 14.83755970001221 9.499998092651367 L 2.162440061569214 9.499998092651367 C 1.865839958190918 9.499998092651367 1.740090012550354 9.277928352355957 1.708619952201843 9.209868431091309 C 1.6771399974823 9.14180850982666 1.589380025863647 8.902168273925781 1.781469941139221 8.676168441772461 L 8.119029998779297 1.220218300819397 C 8.21560001373291 1.106618285179138 8.350890159606934 1.044048309326172 8.5 1.044048309326172 C 8.649109840393066 1.044048309326172 8.78439998626709 1.106618285179138 8.880970001220703 1.220218300819397 L 11.36211013793945 4.139208316802979 L 15.21852970123291 8.676168441772461 C 15.41061973571777 8.902168273925781 15.32285976409912 9.14180850982666 15.29137992858887 9.209868431091309 C 15.25990962982178 9.277928352355957 15.13416004180908 9.499998092651367 14.83755970001221 9.499998092651367 Z" stroke="none"/>
    <path d="M 8.5 1.544048309326172 L 2.162440299987793 8.999988555908203 C 2.162437438964844 8.999990463256836 2.162439346313477 8.999994277954102 2.162440299987793 8.999998092651367 L 14.83755874633789 8.999998092651367 C 14.83755874633789 8.999998092651367 14.83755970001221 8.999998092651367 14.83755970001221 8.999998092651367 L 8.501580238342285 1.544198036193848 C 8.501420021057129 1.544157981872559 8.500829696655273 1.544048309326172 8.5 1.544048309326172 M 8.5 0.5440483093261719 C 8.781137466430664 0.5440483093261719 9.062274932861328 0.6614980697631836 9.261940002441406 0.8963985443115234 L 15.59949970245361 8.352348327636719 C 16.15155982971191 9.001838684082031 15.68997001647949 9.999998092651367 14.83755970001221 9.999998092651367 L 2.162440299987793 9.999998092651367 C 1.310029983520508 9.999998092651367 0.8484401702880859 9.001838684082031 1.400500297546387 8.352348327636719 L 7.738059997558594 0.8963985443115234 C 7.937725067138672 0.6614980697631836 8.218862533569336 0.5440483093261719 8.5 0.5440483093261719 Z" stroke="none" fill="#d4d8e3"/>
  </g>
</svg>
