<svg xmlns="http://www.w3.org/2000/svg" width="15" height="17" viewBox="0 0 15 17">
  <g id="Icon" transform="translate(-1221 -294)">
    <g id="Rounded_Rectangle_14" data-name="Rounded Rectangle 14" transform="translate(1221 299)" fill="none" stroke="#212736" stroke-width="1">
      <rect width="15" height="12" rx="3" stroke="none"/>
      <rect x="0.5" y="0.5" width="14" height="11" rx="2.5" fill="none"/>
    </g>
    <rect id="사각형_695" data-name="사각형 695" width="1" height="4" transform="translate(1228 303)" fill="#212736"/>
    <g id="사각형_696" data-name="사각형 696" transform="translate(1224 294)" fill="none" stroke="#212736" stroke-width="1">
      <path d="M3,0H6A3,3,0,0,1,9,3V6A0,0,0,0,1,9,6H0A0,0,0,0,1,0,6V3A3,3,0,0,1,3,0Z" stroke="none"/>
      <path d="M3,.5H6A2.5,2.5,0,0,1,8.5,3V5.5a0,0,0,0,1,0,0H.5a0,0,0,0,1,0,0V3A2.5,2.5,0,0,1,3,.5Z" fill="none"/>
    </g>
  </g>
</svg>
