<svg xmlns="http://www.w3.org/2000/svg" width="17" height="15" viewBox="0 0 17 15">
  <g id="그룹_7106" data-name="그룹 7106" transform="translate(-275 -328)">
    <g id="사각형_764" data-name="사각형 764" transform="translate(275 331)" fill="#fff" stroke="#212736" stroke-width="1">
      <path d="M0,0H17a0,0,0,0,1,0,0V10a2,2,0,0,1-2,2H2a2,2,0,0,1-2-2V0A0,0,0,0,1,0,0Z" stroke="none"/>
      <path d="M.5.5h16a0,0,0,0,1,0,0V10A1.5,1.5,0,0,1,15,11.5H2A1.5,1.5,0,0,1,.5,10V.5A0,0,0,0,1,.5.5Z" fill="none"/>
    </g>
    <g id="패스_1819" data-name="패스 1819" transform="translate(275 328)" fill="#fff">
      <path d="M 9 3.5 L 0.5 3.5 L 0.5 0.5 L 6.75 0.5 L 9 3.5 Z" stroke="none"/>
      <path d="M 1 1 L 1 3 L 8 3 L 6.5 1 L 1 1 M 0 0 L 7 0 L 10 4 L 0 4 L 0 0 Z" stroke="none" fill="#212736"/>
    </g>
    <rect id="사각형_765" data-name="사각형 765" width="2" height="4" transform="translate(276 330)" fill="#fff"/>
  </g>
</svg>
